<!-- Generator: Adobe Illustrator 19.1.0, SVG Export Plug-In  -->
<svg version="1.1"
   xmlns="http://www.w3.org/2000/svg" xmlns:xlink="http://www.w3.org/1999/xlink" xmlns:a="http://ns.adobe.com/AdobeSVGViewerExtensions/3.0/"
   x="0px" y="0px" width="566.9px" height="162.6px" viewBox="0 0 566.9 162.6" style="enable-background:new 0 0 566.9 162.6;"
   xml:space="preserve">
<style type="text/css">
  .st0{fill:#ffffff;}
  .st1{fill:#ffffff;}
  .st2{fill-rule:evenodd;clip-rule:evenodd;fill:#ffffff;}
  .st3{fill-rule:evenodd;clip-rule:evenodd;fill:#ffffff;}
</style>
<defs>
</defs>
<g>
  <path class="st0" d="M483.5,82.8c-5.4,0-9.9,4.4-9.9,9.7c0,5.4,4.4,9.9,9.9,9.9c5.4,0,9.9-4.4,9.9-9.9
    C493.4,87.3,488.9,82.8,483.5,82.8L483.5,82.8z"/>
  <path class="st1" d="M519.9,82.8c-5.4,0-9.9,4.4-9.9,9.7c0,5.4,4.4,9.9,9.9,9.9c5.4,0,9.9-4.4,9.9-9.9
    C529.7,87.3,525.3,82.8,519.9,82.8L519.9,82.8z"/>
  <path class="st0" d="M556.2,82.8c-5.4,0-9.9,4.4-9.9,9.7c0,5.4,4.4,9.9,9.9,9.9c5.4,0,9.9-4.4,9.9-9.9
    C566,87.3,561.6,82.8,556.2,82.8L556.2,82.8z"/>
  <path class="st1" d="M483.5,43.3c-5.4,0-9.9,4.4-9.9,9.7c0,5.4,4.4,9.9,9.9,9.9c5.4,0,9.9-4.4,9.9-9.9
    C493.4,47.8,488.9,43.3,483.5,43.3L483.5,43.3z"/>
  <path class="st0" d="M519.9,43.3c-5.4,0-9.9,4.4-9.9,9.7c0,5.4,4.4,9.9,9.9,9.9c5.4,0,9.9-4.4,9.9-9.9
    C529.7,47.8,525.3,43.3,519.9,43.3L519.9,43.3z"/>
  <path class="st1" d="M556.2,43.3c-5.4,0-9.9,4.4-9.9,9.7c0,5.4,4.4,9.9,9.9,9.9c5.4,0,9.9-4.4,9.9-9.9
    C566,47.8,561.6,43.3,556.2,43.3L556.2,43.3z"/>
  <path class="st2" d="M170,151.8c0-3.6-2.1-7.1-6.9-7.9v-0.1c3.7-1.2,6.2-4.4,6.2-8c0-5.1-3.6-8.3-11.2-8.3c-4.1,0-7.6,0.1-10.1,0.2
    v34.4c3.4,0.1,6.7,0.2,8.8,0.2C167.5,162.3,170,155.9,170,151.8L170,151.8z M164.4,136.6c0,3.8-3,6-8.7,6c-1.2,0-2.1,0-3.1-0.1
    v-11.1c1.4-0.1,3.1-0.1,4.6-0.1C162.8,131.3,164.4,133.5,164.4,136.6L164.4,136.6z M165.1,152c0,3.8-2.5,6.5-8.1,6.5
    c-2,0-3.5-0.1-4.4-0.3v-12c0.8-0.1,2.6-0.1,3.2-0.1C161.1,146.1,165.1,147.5,165.1,152L165.1,152z"/>
  <path class="st2" d="M194.7,128.8c0-1.5-1.2-2.7-2.7-2.7c-1.5,0-2.8,1.2-2.8,2.7s1.2,2.7,2.8,2.7
    C193.5,131.5,194.7,130.3,194.7,128.8L194.7,128.8z M184.9,128.8c0-1.5-1.2-2.7-2.7-2.7c-1.5,0-2.8,1.2-2.8,2.7s1.2,2.7,2.8,2.7
    C183.7,131.5,184.9,130.3,184.9,128.8L184.9,128.8z M197.6,162.1v-25.3h-4.5V149c0,5.6-3.1,9.8-7.2,9.8c-3.3,0-4.3-2.1-4.3-5.7
    v-16.4H177v17.7c0,4.5,1.8,8.1,7.6,8.1c4.3,0,7.4-2.3,8.9-5.9l0.1,0.1c-0.3,1.5-0.4,3.8-0.4,5.3H197.6L197.6,162.1z"/>
  <path class="st0" d="M219,136.3c-5-0.6-7.6,3-8.7,6.5h-0.1c0.4-2.1,0.6-4.4,0.6-6h-4.4v25.3h4.6v-10.2c0-8.1,2.5-12,7.9-11.1
    L219,136.3L219,136.3z"/>
  <path class="st2" d="M245.1,149c0-9.1-4.9-12.7-11.4-12.7c-7.6,0-12.3,5.9-12.3,13.3c0,8.9,4.5,12.9,11.4,12.9
    C240.2,162.6,245.1,156.6,245.1,149L245.1,149z M240.3,149.3c0,6.5-3.3,9.4-7,9.4c-4.6,0-7.1-3.4-7.1-9.5c0-6.3,3.5-9.1,7.1-9.1
    C238,140.1,240.3,143.5,240.3,149.3L240.3,149.3z"/>
  <path class="st0" d="M277.7,125.1c-1.4-0.3-2.8-0.5-4.2-0.5c-6.3,0-9.7,3.3-9.7,10.3v1.9h-5.2v3.6h5.2v21.8h4.6v-21.8h7v-3.6h-7
    v-1.9c0-4.5,1.6-6.5,5.2-6.5c1.2,0,2.5,0.2,3.7,0.6L277.7,125.1L277.7,125.1z"/>
  <path class="st2" d="M298.1,128.8c0-1.5-1.2-2.7-2.7-2.7c-1.5,0-2.8,1.2-2.8,2.7s1.2,2.7,2.8,2.7
    C296.9,131.5,298.1,130.3,298.1,128.8L298.1,128.8z M288.3,128.8c0-1.5-1.2-2.7-2.7-2.7c-1.5,0-2.8,1.2-2.8,2.7s1.2,2.7,2.8,2.7
    C287.1,131.5,288.3,130.3,288.3,128.8L288.3,128.8z M301.1,162.1v-25.3h-4.5V149c0,5.6-3.1,9.8-7.2,9.8c-3.3,0-4.3-2.1-4.3-5.7
    v-16.4h-4.5v17.7c0,4.5,1.8,8.1,7.6,8.1c4.3,0,7.4-2.3,8.9-5.9l0.1,0.1c-0.3,1.5-0.4,3.8-0.4,5.3H301.1L301.1,162.1z"/>
  <path class="st0" d="M322.4,136.3c-5-0.6-7.6,3-8.7,6.5h-0.1c0.4-2.1,0.6-4.4,0.6-6h-4.4v25.3h4.6v-10.2c0-8.1,2.5-12,7.9-11.1
    L322.4,136.3L322.4,136.3z"/>
  <polygon class="st0" points="343.6,162.1 343.6,127.7 338.9,127.7 338.9,162.1 343.6,162.1  "/>
  <path class="st0" d="M372.9,162.1v-17.7c0-4.5-1.8-8.1-7.6-8.1c-4.3,0-7.4,2.3-8.9,5.9l-0.1-0.1c0.3-1.5,0.4-3.8,0.4-5.3h-4.4v25.3
    h4.6v-12.2c0-5.6,3-9.8,7.2-9.8c3.4,0,4.3,2.1,4.3,5.7v16.4H372.9L372.9,162.1z"/>
  <path class="st0" d="M396.7,125.1c-1.4-0.3-2.8-0.5-4.2-0.5c-6.3,0-9.7,3.3-9.7,10.3v1.9h-5.2v3.6h5.2v21.8h4.6v-21.8h7v-3.6h-7
    v-1.9c0-4.5,1.6-6.5,5.2-6.5c1.2,0,2.5,0.2,3.7,0.6L396.7,125.1L396.7,125.1z"/>
  <path class="st2" d="M419.8,149c0-9.1-4.9-12.7-11.4-12.7c-7.6,0-12.3,5.9-12.3,13.3c0,8.9,4.5,12.9,11.4,12.9
    C414.9,162.6,419.8,156.6,419.8,149L419.8,149z M415,149.3c0,6.5-3.3,9.4-7,9.4c-4.6,0-7.1-3.4-7.1-9.5c0-6.3,3.5-9.1,7.1-9.1
    C412.7,140.1,415,143.5,415,149.3L415,149.3z"/>
  <path class="st0" d="M438.9,136.3c-5-0.6-7.6,3-8.7,6.5h-0.1c0.4-2.1,0.6-4.4,0.6-6h-4.4v25.3h4.6v-10.2c0-8.1,2.5-12,7.9-11.1
    L438.9,136.3L438.9,136.3z"/>
  <path class="st0" d="M480.4,162.1v-17.5c0-5.7-2.8-8.3-7.5-8.3c-4.9,0-7.6,3.4-8.7,5.8c-0.2-2-1.6-5.8-7-5.8
    c-4.1,0-7.3,2.3-8.8,5.9l-0.1-0.1c0.3-1.5,0.4-3.8,0.4-5.3h-4.4v25.3h4.6V150c0-5.8,3.2-9.9,7.1-9.9c3.5,0,4.1,2.5,4.1,5.7v16.3
    h4.5V150c0-6.1,3.5-9.9,7.1-9.9c3.3,0,4.1,2.2,4.1,5.8v16.2H480.4L480.4,162.1z"/>
  <path class="st2" d="M507,162.1c-0.1-2.2-0.1-4.9-0.1-7.3v-10.1c0-5-2.1-8.5-9.4-8.5c-3.4,0-6.4,0.8-8.9,1.8l0.5,3.9
    c2.2-1.3,5.2-2.1,7.6-2.1c4.2,0,5.6,1.9,5.6,5.4v1.9c-9.6,0-15.2,3.5-15.2,9.1c0,4,2.9,6.3,7,6.3s7.4-2.4,8.6-5.5h0.1
    c-0.3,1.4-0.3,3.3-0.3,5H507L507,162.1z M502.3,150.9c0,4-2.8,8-6.9,8c-2.3,0-3.9-1.4-3.9-3.5c0-2.3,1.9-5,10.7-5V150.9
    L502.3,150.9z"/>
  <path class="st0" d="M527.7,162v-3.9c-1,0.3-2.3,0.5-3.5,0.5c-2.9,0-3.6-1.1-3.6-5.3v-12.9h7.1v-3.6h-7.1v-9.5l-4.6,1.3v8.2h-5.2
    v3.6h5.2v14.6c0,5.4,1.6,7.6,6.8,7.6C524.4,162.5,526.3,162.3,527.7,162L527.7,162z"/>
  <path class="st2" d="M539.2,129.6c0-1.7-1.4-3-3.1-3s-3.1,1.3-3.1,3c0,1.7,1.4,3,3.1,3S539.2,131.2,539.2,129.6L539.2,129.6z
     M538.5,162.1v-25.3h-4.6v25.3H538.5L538.5,162.1z"/>
  <polygon class="st0" points="566.9,162.1 556.4,148.3 566.2,136.8 560.6,136.8 551.7,147.9 551.7,124.9 547.1,124.9 547.1,162.1 
    551.7,162.1 551.7,149.1 561.1,162.1 566.9,162.1   "/>
  <path class="st3" d="M454.3,101.3V0h-12.5v32.1c-4.2-0.4-7.9-0.7-11.7-0.7c-21.8,0-35.7,14.6-35.7,38.7c0,20.1,8.5,32.5,25.4,32.5
    c10.8,0,19.3-6.1,23.2-15.4l0.3,0.1c-0.8,4-1.1,10.1-1.1,14H454.3L454.3,101.3z M441.8,65.6c0,12.1-6.4,26.6-18.9,26.6
    c-10.4,0-15.3-8.5-15.3-23.3c0-19.8,8.7-27.7,21.9-27.7c3.9,0,8,0.4,12.2,1.5V65.6L441.8,65.6z"/>
  <polygon class="st1" points="233.2,101.3 233.2,0 220.7,0 220.7,101.3 233.2,101.3  "/>
  <path class="st1" d="M56.3,101.3V53c0-12.2-5-22.1-20.8-22.1c-11.8,0-20.3,6.4-24.3,16L11,46.8c0.8-4,1.1-10.4,1.1-14.4H0v69h12.5
    V68.1c0-15.3,8.2-26.8,19.6-26.8c9.2,0,11.8,5.7,11.8,15.4v44.5H56.3L56.3,101.3z"/>
  <path class="st3" d="M129.3,60.1c0-15.8-8.2-29-27.6-29c-19.6,0-30.8,15.4-30.8,36.1c0,24.3,11.4,35.4,32.6,35.4
    c8.6,0,16.6-1.5,23.3-4.3l-1.1-10.1c-5.6,2.6-13,4.3-20.1,4.3c-14.7,0-22.3-7.9-21.8-26.4h45.1C129.2,63.7,129.3,61.7,129.3,60.1
    L129.3,60.1z M116.5,57.2H84.3c1.4-10.1,7.8-16.9,16.8-16.9C110.8,40.2,116.8,47,116.5,57.2L116.5,57.2z"/>
  <path class="st1" d="M200.4,101.3v-69H188v33.2c0,15.3-8.3,26.8-19.7,26.8c-9,0-11.8-5.7-11.8-15.4V32.3h-12.3v48.3
    c0,12.2,4.9,22.1,20.7,22.1c11.8,0,20.3-6.4,24.3-16l0.3,0.1c-0.7,4-1.1,10.4-1.1,14.4H200.4L200.4,101.3z"/>
  <path class="st3" d="M304.6,101.3c-0.1-6-0.3-13.3-0.3-19.8V54c0-13.7-5.7-23-25.5-23c-9.2,0-17.5,2.2-24.1,5l1.2,10.7
    c6-3.6,14.3-5.7,20.8-5.7c11.4,0,15.1,5.1,15.1,14.7v5.1c-26.1,0-41.5,9.6-41.5,24.7c0,11,7.8,17.1,19.1,17.1
    c11.4,0,20.1-6.5,23.4-15h0.3c-0.7,3.9-0.7,8.9-0.7,13.7H304.6L304.6,101.3z M291.9,70.8c0,10.8-7.5,21.9-18.7,21.9
    c-6.4,0-10.5-3.7-10.5-9.6c0-6.2,5.3-13.6,29.3-13.6V70.8L291.9,70.8z"/>
  <path class="st1" d="M379.8,101.3V53c0-12.2-5-22.1-20.8-22.1c-11.8,0-20.3,6.4-24.3,16l-0.3-0.1c0.8-4,1.1-10.4,1.1-14.4h-12.1v69
    h12.5V68.1c0-15.3,8.2-26.8,19.6-26.8c9.2,0,11.8,5.7,11.8,15.4v44.5H379.8L379.8,101.3z"/>
</g>
</svg>
