<?xml version="1.0" encoding="UTF-8" standalone="no"?>
<svg width="203px" height="45px" viewBox="0 0 203 45" version="1.1" xmlns="http://www.w3.org/2000/svg" xmlns:xlink="http://www.w3.org/1999/xlink">
    <!-- Generator: Sketch 46.2 (44496) - http://www.bohemiancoding.com/sketch -->
    <title>Group 19</title>
    <desc>Created with Sketch.</desc>
    <defs>
        <polygon id="path-1" points="30.8151562 23.7288111 30.8151562 0.542909144 0.381384375 0.542909144 0.381384375 23.7288111 30.8151562 23.7288111"></polygon>
        <polygon id="path-3" points="5.11731567e-16 44.0869038 5.11731567e-16 0.113604725 59.65215 0.113604725 59.65215 44.0869038"></polygon>
    </defs>
    <g id="sponsors" stroke="none" stroke-width="1" fill="none" fill-rule="evenodd">
        <g id="yglf-copy" transform="translate(-340.000000, -766.000000)">
            <g id="Page-1" transform="translate(340.000000, 766.000000)">
                <g id="Group-19">
                    <path d="M142.607953,28.544829 C142.518703,27.5467395 142.258922,26.6651463 141.828609,25.9000493 C141.395109,25.1365266 140.838891,24.5052429 140.153578,24.0046239 C139.469859,23.5055791 138.672984,23.1246049 137.767734,22.8601269 C136.859297,22.595649 135.883922,22.46341 134.844797,22.46341 C133.415203,22.46341 132.149766,22.7483535 131.050078,23.3229634 C129.950391,23.895999 129.027609,24.6595217 128.284922,25.6151058 C127.540641,26.5691156 126.973266,27.658513 126.587578,28.8754265 C126.201891,30.0954885 126.007453,31.3517589 126.007453,32.6442375 C126.007453,34.1728572 126.185953,35.5849807 126.544547,36.875885 C126.901547,38.169938 127.449797,39.2939693 128.194078,40.2495534 C128.938359,41.2035632 129.861141,41.9466204 130.960828,42.4755763 C132.062109,43.0045323 133.354641,43.2690102 134.844797,43.2690102 C135.915797,43.2690102 136.903922,43.0911173 137.810766,42.7400543 C138.719203,42.3858427 139.520859,41.9009665 140.220516,41.2854255 C140.918578,40.6667359 141.493922,39.9252531 141.938578,39.0594026 C142.384828,38.1919778 142.682859,37.2442651 142.832672,36.2146901 L144.526828,36.2146901 C144.349922,37.5669912 143.969016,38.7713105 143.388891,39.8292224 C142.808766,40.8887085 142.096359,41.7765988 141.246891,42.4960419 C140.399016,43.2170592 139.433203,43.768055 138.346266,44.1490292 C137.260922,44.5315777 136.092703,44.7220648 134.844797,44.7220648 C132.968953,44.7220648 131.370422,44.3914673 130.046016,43.7302724 C128.723203,43.0706518 127.636266,42.1811872 126.788391,41.0634529 C125.940516,39.9472929 125.315766,38.6626856 124.914141,37.2064825 C124.512516,35.7518537 124.313297,34.2311053 124.313297,32.6442375 C124.313297,31.058944 124.542797,29.5602355 125.003391,28.148112 C125.463984,26.7391372 126.141328,25.5033324 127.035422,24.4454205 C127.926328,23.3890829 129.027609,22.549995 130.337672,21.934454 C131.646141,21.3157645 133.147453,21.0087812 134.844797,21.0087812 C136.092703,21.0087812 137.260922,21.16306 138.346266,21.4716176 C139.433203,21.778601 140.399016,22.2414374 141.246891,22.8601269 C142.096359,23.4756679 142.786453,24.2549334 143.321953,25.1947747 C143.857453,26.1361904 144.184172,27.2539246 144.303703,28.544829 L142.607953,28.544829 Z" id="Fill-2" fill="#FFFFFF"></path>
                    <path d="M149.123044,32.8647933 C149.123044,34.2170943 149.315887,35.5190186 149.703169,36.7674176 C150.088856,38.0142423 150.656231,39.1256795 151.400512,40.095432 C152.1432,41.0636103 153.065981,41.8350044 154.165669,42.40804 C155.265356,42.9826499 156.530794,43.2675934 157.958794,43.2675934 C159.386794,43.2675934 160.650637,42.9826499 161.751919,42.40804 C162.851606,41.8350044 163.774387,41.0636103 164.518669,40.095432 C165.26295,39.1256795 165.827137,38.0142423 166.216012,36.7674176 C166.6017,35.5190186 166.794544,34.2170943 166.794544,32.8647933 C166.794544,31.5140665 166.6017,30.2121422 166.216012,28.9637432 C165.827137,27.7153442 165.26295,26.6054813 164.518669,25.6357288 C163.774387,24.6659762 162.851606,23.8961564 161.751919,23.3215465 C160.650637,22.7485109 159.386794,22.4635674 157.958794,22.4635674 C156.530794,22.4635674 155.265356,22.7485109 154.165669,23.3215465 C153.065981,23.8961564 152.1432,24.6659762 151.400512,25.6357288 C150.656231,26.6054813 150.088856,27.7153442 149.703169,28.9637432 C149.315887,30.2121422 149.123044,31.5140665 149.123044,32.8647933 M147.428887,32.8647933 C147.428887,31.2495885 147.658387,29.7288402 148.118981,28.3041226 C148.579575,26.8778307 149.256919,25.6215603 150.151012,24.5337372 C151.041919,23.4474884 152.1432,22.587935 153.451669,21.955077 C154.760137,21.3237933 156.263044,21.0089386 157.958794,21.0089386 C159.654544,21.0089386 161.15745,21.3237933 162.465919,21.955077 C163.774387,22.587935 164.877262,23.4474884 165.768169,24.5337372 C166.660669,25.6215603 167.338012,26.8778307 167.8002,28.3041226 C168.260794,29.7288402 168.490294,31.2495885 168.490294,32.8647933 C168.490294,34.4815723 168.260794,36.010192 167.8002,37.4490781 C167.338012,38.8895384 166.660669,40.1458088 165.768169,41.2194634 C164.877262,42.2915437 163.774387,43.1432258 162.465919,43.7760838 C161.15745,44.4057932 159.654544,44.7222222 157.958794,44.7222222 C156.263044,44.7222222 154.760137,44.4057932 153.451669,43.7760838 C152.1432,43.1432258 151.041919,42.2915437 150.151012,41.2194634 C149.256919,40.1458088 148.579575,38.8895384 148.118981,37.4490781 C147.658387,36.010192 147.428887,34.4815723 147.428887,32.8647933" id="Fill-4" fill="#FFFFFF"></path>
                    <g id="Group-8" transform="translate(172.125000, 20.465557)">
                        <mask id="mask-2" fill="white">
                            <use xlink:href="#path-1"></use>
                        </mask>
                        <g id="Clip-7"></g>
                        <path d="M0.381384375,1.07186508 L2.07713437,1.07186508 L2.07713437,5.69865527 L2.16638437,5.69865527 C2.34488437,4.99338069 2.65725937,4.32588867 3.10350937,3.69460494 C3.54975937,3.06332122 4.09163437,2.51075118 4.73232187,2.04004336 C5.37141562,1.57090982 6.08541562,1.20410407 6.87432187,0.939626098 C7.66163437,0.675148128 8.48879062,0.542909144 9.35100937,0.542909144 C10.4506969,0.542909144 11.4037594,0.681445223 12.2070094,0.961665928 C13.0102594,1.24031236 13.6955719,1.60869239 14.2597594,2.06365747 C14.8255406,2.51862255 15.2717906,3.03183575 15.5985094,3.60487135 C15.9252281,4.17948122 16.1499469,4.76038819 16.2678844,5.34759225 L16.3571344,5.34759225 C17.0408531,3.79063564 17.9556656,2.60048477 19.1015719,1.77556539 C20.2474781,0.95379456 21.7567594,0.542909144 23.6310094,0.542909144 C24.6717281,0.542909144 25.6311656,0.697187959 26.5109156,1.00574559 C27.3858844,1.31272895 28.1461031,1.78343676 28.7851969,2.41629476 C29.4258844,3.04757848 29.9231344,3.84888376 30.2801344,4.81863631 C30.6371344,5.7868146 30.8156344,6.93446007 30.8156344,8.25527564 L30.8156344,23.7288111 L29.1198844,23.7288111 L29.1198844,8.21119598 C29.1198844,6.77230989 28.8967594,5.64040715 28.4505094,4.81863631 C28.0042594,3.99529121 27.4751344,3.37030458 26.8663219,2.94367642 C26.2559156,2.51862255 25.6471031,2.25414458 25.0366969,2.15181679 C24.4262906,2.04791473 23.9577281,1.99753797 23.6310094,1.99753797 C22.5902906,1.99753797 21.6292594,2.17228235 20.7526969,2.52649391 C19.8745406,2.87755693 19.1159156,3.40651287 18.4768219,4.11336173 C17.8361344,4.81863631 17.3388844,5.69393245 16.9818844,6.73610159 C16.6248844,7.77984501 16.4463844,8.97629296 16.4463844,10.328594 L16.4463844,23.7288111 L14.7506344,23.7288111 L14.7506344,8.21119598 C14.7506344,6.80222108 14.5354781,5.67818972 14.1035719,4.84067615 C13.6716656,4.0015883 13.1664469,3.37817595 12.5863219,2.96571626 C12.0061969,2.55483084 11.4117281,2.29035287 10.8013219,2.17228235 C10.1909156,2.0557861 9.70960312,1.99753797 9.35100937,1.99753797 C8.54775937,1.99753797 7.71582187,2.15811388 6.85200937,2.48241425 C5.98979062,2.80671462 5.20088437,3.30418509 4.48688437,3.98112275 C3.77288437,4.65648613 3.19275937,5.52233663 2.74650937,6.58182278 C2.30025937,7.63973465 2.07713437,8.88813364 2.07713437,10.328594 L2.07713437,23.7288111 L0.381384375,23.7288111 L0.381384375,1.07186508 Z" id="Fill-6" fill="#FFFFFF" mask="url(#mask-2)"></path>
                    </g>
                    <path d="M65.6177156,0.935847841 C63.3450281,2.11183024 62.4987469,4.09856356 62.4987469,9.58648142 C62.4987469,9.58648142 63.6494344,8.48606416 65.3563406,7.87524599 C66.6010594,7.42972655 67.6624969,6.75121462 68.2776844,6.30726946 C70.1981531,4.91876012 70.4961844,3.128811 70.4961844,0.115651281 C70.4961844,0.115651281 67.3644656,0.0322147789 65.6177156,0.935847841" id="Fill-9" fill="#FFFFFF"></path>
                    <g id="Group-13">
                        <mask id="mask-4" fill="white">
                            <use xlink:href="#path-3"></use>
                        </mask>
                        <g id="Clip-12"></g>
                        <path d="M52.1392125,2.22108483 C50.2856812,3.8347153 49.7438062,6.4070784 49.7438062,6.4070784 L43.6078687,29.8905181 L38.5046812,10.6717857 C38.0074312,8.62837849 37.11015,6.10166932 35.6949,4.39358244 C33.8875875,2.21793628 30.2171812,2.08097448 29.8251187,2.08097448 C29.43465,2.08097448 25.76265,2.21793628 23.9569312,4.39358244 C22.5400875,6.10166932 21.6428062,8.62837849 21.14715,10.6717857 L16.0439625,29.8905181 L9.90643125,6.4070784 C9.90643125,6.4070784 9.36615,3.8347153 7.51261875,2.22108483 C4.50680625,-0.395357938 -0.00031875,0.163509199 -0.00031875,0.163509199 L11.7504,44.0511094 C11.7504,44.0511094 15.6279937,44.3266073 17.5675875,43.3489833 C20.1144,42.0675246 21.3272437,41.0773065 22.8699937,35.1060866 C24.2438062,29.7818932 28.0863375,14.1446333 28.446525,13.0316218 C28.6234312,12.4822003 28.84815,11.1676819 29.8251187,11.1676819 C30.8259937,11.1676819 31.0315875,12.4806261 31.2053062,13.0316218 C31.557525,14.1477818 35.408025,29.7818932 36.7818375,35.1060866 C38.3245875,41.0773065 39.5374312,42.0675246 42.0842437,43.3489833 C44.0238375,44.3266073 47.9014312,44.0511094 47.9014312,44.0511094 L59.65215,0.163509199 C59.65215,0.163509199 55.145025,-0.395357938 52.1392125,2.22108483" id="Fill-11" fill="#FFFFFF" mask="url(#mask-4)"></path>
                    </g>
                    <path d="M70.4923594,7.32976018 C70.4923594,7.32976018 69.7576406,8.45221727 68.0794219,9.37789017 C67.0036406,9.9729656 65.9692969,10.3759796 64.8600469,10.901787 C63.0017344,11.781806 62.4981094,12.7641527 62.4981094,14.2597127 L62.4981094,14.7587574 L62.4981094,17.0697911 L62.4981094,17.1327621 L62.4981094,17.6538466 L62.4981094,44.0512668 C62.4981094,44.0512668 65.4640781,44.4212211 67.4036719,43.4435972 C69.8994844,42.1873268 70.4732344,40.9751361 70.4955469,35.5171295 L70.4955469,8.91820227 L70.4923594,8.91977654 L70.4923594,7.32976018 Z" id="Fill-14" fill="#FFFFFF"></path>
                    <g id="Group-18" transform="translate(73.312500, 0.000000)" fill="#FFFFFF">
                        <path d="M26.4696375,22.2138876 L41.3791687,0.309444365 C41.3791687,0.309444365 35.08545,-0.748467513 31.9712625,2.05216527 C29.9774812,3.84526293 27.747825,7.06937532 27.747825,7.06937532 L22.2621375,14.8809211 C21.9959812,15.2870837 21.64695,15.7278803 21.0907312,15.7278803 C20.5345125,15.7278803 20.187075,15.2870837 19.9209187,14.8809211 L14.4336375,7.06937532 C14.4336375,7.06937532 12.205575,3.84526293 10.2117937,2.05216527 C7.0960125,-0.748467513 0.8038875,0.309444365 0.8038875,0.309444365 L15.711825,22.2138876 L0.8421375,44.0506371 C0.8421375,44.0506371 7.3956375,44.8676851 10.509825,42.065478 C12.5036062,40.2739547 14.4336375,37.3599742 14.4336375,37.3599742 L19.9209187,29.5484284 C20.187075,29.1406916 20.5345125,28.699895 21.0907312,28.699895 C21.64695,28.699895 21.9959812,29.1406916 22.2621375,29.5484284 L27.747825,37.3599742 C27.747825,37.3599742 29.7910125,40.2739547 31.7847937,42.065478 C34.900575,44.8676851 41.339325,44.0506371 41.339325,44.0506371 L26.4696375,22.2138876 Z" id="Fill-16"></path>
                    </g>
                </g>
            </g>
        </g>
    </g>
</svg>