<svg width="120px" height="135px" viewBox="0 0 120 135" version="1.1" xmlns="http://www.w3.org/2000/svg" xmlns:xlink="http://www.w3.org/1999/xlink">
    <g id="Page-1" stroke="none" stroke-width="1" fill="none" fill-rule="evenodd">
        <path d="M69.2940359,67.1371152 L119.985391,67.3732668 L119.971308,70.5039008 C119.904146,84.9828119 115.819156,100.6154 108.109564,111.731858 C104.437298,116.997606 90.6765907,135.130368 62.7771176,134.999293 C26.6730004,134.831387 -0.17570623,105.16186 0.000865857713,67.2053608 C0.177437945,29.2477784 27.4854487,-0.168264798 63.7715543,0.000724438853 C75.441561,0.0548876559 89.1036909,3.24943419 100.910189,13.0876409 C106.359009,17.6124361 111.437352,23.5064774 114.878883,28.6097357 L104.804524,38.3450323 C101.364077,33.0467864 97.3744141,28.33242 93.3793352,24.7912289 C87.5676221,19.6782212 78.477951,13.7646811 63.8907134,13.6975188 C34.5331665,13.5610274 13.9998909,37.1393591 13.8579833,67.4653443 C13.6922439,103.07441 40.0480652,121.198505 63.0241019,121.304665 C79.252485,121.380494 93.3338381,112.6418 100.325226,99.5657165 C102.531836,95.4666442 104.931266,89.2172922 105.335324,81.0007322 L69.2301233,80.8328262 L69.2940359,67.1371152 Z" id="Fill-10" fill="#05CF9D"></path>
    </g>
</svg>