<?xml version="1.0" encoding="UTF-8" standalone="no"?>
<svg width="166px" height="29px" viewBox="0 0 166 29" version="1.1" xmlns="http://www.w3.org/2000/svg" xmlns:xlink="http://www.w3.org/1999/xlink">
    <!-- Generator: Sketch 46.2 (44496) - http://www.bohemiancoding.com/sketch -->
    <title>Page 1</title>
    <desc>Created with Sketch.</desc>
    <defs>
        <polygon id="path-1" points="18.5838385 28.3555556 169 28.3555556 169 0.176195556 0 0.176195556 0 28.3555556 18.5838385 28.3555556 18.5838385 18.9579573 1.02460976e-05 18.9579573 1.02460976e-05 28.3555751 18.5838385 28.3555751"></polygon>
        <polygon id="path-3" points="0 28 169 28 169 0 0 0"></polygon>
    </defs>
    <g id="sponsors" stroke="none" stroke-width="1" fill="none" fill-rule="evenodd">
        <g id="yglf-copy" transform="translate(-376.000000, -877.000000)">
            <g id="Page-1" transform="translate(376.000000, 877.000000)">
                <g id="Group-3">
                    <mask id="mask-2" fill="white">
                        <use xlink:href="#path-1"></use>
                    </mask>
                    <g id="Clip-2"></g>
                    <path d="M7.07873322,21.1352729 L2.10731655,21.1358596 C0.22073669,21.1358596 -0.196677662,19.9365173 0.115307292,18.9579573 L0.0840109954,19.0545618 C-0.147385995,19.9030773 0.145234375,20.3301707 0.406754051,20.8335307 C1.267011,22.483824 3.96944618,27.4350951 3.96944618,27.4350951 C4.30783738,28.0272373 4.77317419,28.3555751 5.54286748,28.3555751 C7.05897743,28.3555751 9.49500289,26.7878062 9.49500289,26.7878062 L18.5838385,21.1352729 L7.07873322,21.1352729 Z" id="Fill-1" fill="#FEFEFE"></path>
                </g>
                <path d="M9.01379723,0 L8.99615916,0 C7.98702401,0 7.75852188,0.635553475 7.70838221,0.753699977 L0.149975749,18.6608565 C-0.261248808,19.6673625 0.104196052,21 2.11434096,21 L7.1512968,20.9994103 L13,7.27436462 C11.4397248,3.61025041 10.3039523,0.938881348 10.2956288,0.919223028 C10.2219056,0.740528902 9.89371869,0 9.01379723,0" id="Fill-4" fill="#FEFEFE"></path>
                <path d="M15.7404392,-4.81060504e-16 C15.7463132,-4.81060504e-16 13.2167024,-4.81060504e-16 8.15160686,-4.81060504e-16 C7.36124799,-4.81060504e-16 7.05980182,0.534571423 7,0.66418216 C7,0.66418216 7.2654526,0.0678173124 8.15141939,0.0678173124 C9.00045528,0.0678173124 9.31108731,0.799816785 9.38063739,0.976452708 C9.38851098,0.995884602 10.4630691,3.63648477 11.9388056,7.25858994 C15.1892876,15.2421839 20.3841725,28 20.3841725,28 L28,28 C28,28 16.9724692,0.928261609 16.9038565,0.761341634 C16.8373058,0.595587572 16.5461703,0.0169057484 15.7404392,-4.81060504e-16 Z" id="Fill-6" fill="#FEFEFE"></path>
                <path d="M42.4528011,8.33575365 L39.658393,14.6926355 L45.2712484,14.6926355 L42.4528011,8.33575365 Z M51,21 L47.9732132,21 L46.3188094,17.1662163 L38.6098548,17.1662163 L36.9314119,21 L34,21 L41.1726659,5 L43.8263569,5 L51,21 Z" id="Fill-8" fill="#FEFEFE"></path>
                <polygon id="Fill-10" fill="#FEFEFE" points="77.7827495 21 74.9935975 21 74.9935975 7.60551207 70 7.60551207 70 5 83 5 81.9272202 7.60551207 77.7827495 7.60551207"></polygon>
                <polygon id="Fill-12" fill="#FEFEFE" points="132.996165 7.60535149 123.981027 7.60535149 123.981027 11.6757457 129.755164 11.6757457 129.755164 14.1911384 123.981027 14.1911384 123.981027 18.4427927 133 18.4427927 133 21 121 21 121 5 132.996165 5"></polygon>
                <mask id="mask-4" fill="white">
                    <use xlink:href="#path-3"></use>
                </mask>
                <g id="Clip-15"></g>
                <polygon id="Fill-14" fill="#FEFEFE" mask="url(#mask-4)" points="152 21 155 21 155 5 152 5"></polygon>
                <path d="M143.206405,7.49154863 C141.585474,7.49154863 140.208576,7.96887186 140.201158,9.01924267 C140.193169,10.2478908 140.983283,10.6738271 143.967417,11.61994 C147.265009,12.6788444 149.017182,13.7538884 148.999873,16.3699833 C148.980852,19.3187017 146.644749,21 143.231512,21 C140.816473,21 138.651174,20.2366168 137,18.8196736 L138.0273,16.3928013 C139.524978,17.6181102 141.34163,18.4853804 143.304741,18.4944705 C145.019443,18.501891 146.242274,17.6878629 146.242274,16.4799921 C146.242274,15.471176 145.644458,14.7999924 142.750482,13.9056375 C139.430065,12.8441359 137.424919,11.7360708 137.440706,9.09919849 C137.460868,6.47642516 139.983753,4.98472051 143.15562,5.00011803 C146.327867,5.01514453 148.113706,6.14584219 148.383797,6.29888986 L147.388072,8.50555903 C146.739471,8.1651439 145.318827,7.49154863 143.206405,7.49154863" id="Fill-16" fill="#FEFEFE" mask="url(#mask-4)"></path>
                <polygon id="Fill-17" fill="#FEFEFE" mask="url(#mask-4)" points="157.64539 12.7444472 165.202887 5 161.582388 5 154 12.7444472 162.331945 21 166 21"></polygon>
                <path d="M93.4987194,18.5031463 C90.2690957,18.5031463 87.9120398,16.0392973 87.9120398,12.9997219 C87.9120398,9.961259 90.2690957,7.49722451 93.4987194,7.49722451 C96.7283431,7.49722451 99.0883543,9.961259 99.0883543,12.9997219 C99.0883543,16.0392973 96.7283431,18.5031463 93.4987194,18.5031463 M93.4987194,5 C88.8050968,5 85,8.58248253 85,12.9997219 C85,17.4191862 88.8050968,21 93.4987194,21 C98.192342,21 102,17.4191862 102,12.9997219 C102,8.58248253 98.192342,5 93.4987194,5" id="Fill-18" fill="#FEFEFE" mask="url(#mask-4)"></path>
                <path d="M110.347411,18.4395627 L106.96698,18.4428234 L106.96698,7.60800556 L110.360451,7.60800556 C113.648402,7.60800556 116.03623,9.83527339 116.03623,12.9788053 C116.03623,16.1217618 113.633959,18.4395627 110.347411,18.4395627 M110.347411,5 L104,5 L104,21 L110.347411,20.9986573 C115.125874,20.9986573 119,17.5484254 119,12.9788053 C119,8.40745891 115.125874,5 110.347411,5" id="Fill-19" fill="#FEFEFE" mask="url(#mask-4)"></path>
                <path d="M69,13.7721286 C69,18.4675919 65.938326,21 61.4992658,21 C57.0610447,21 54,18.4675919 54,13.7721286 L54,5 L57.0998532,5 L57.0998532,14.1048482 C57.0998532,16.8591323 58.8961611,18.4772223 61.5005244,18.4772223 C64.1042584,18.4772223 65.9009859,16.8591323 65.9009859,14.1048482 L65.9009859,5 L69,5 L69,13.7721286 Z" id="Fill-20" fill="#FEFEFE" mask="url(#mask-4)"></path>
            </g>
        </g>
    </g>
</svg>