<?xml version="1.0" encoding="UTF-8" standalone="no"?>
<svg width="259px" height="44px" viewBox="0 0 259 44" version="1.1" xmlns="http://www.w3.org/2000/svg" xmlns:xlink="http://www.w3.org/1999/xlink">
    <!-- Generator: Sketch 46.2 (44496) - http://www.bohemiancoding.com/sketch -->
    <title>Page 1</title>
    <desc>Created with Sketch.</desc>
    <defs>
        <polygon id="path-1" points="28.9204115 44 263 44 263 0.273406897 0 0.273406897 0 44 28.9204115 44 28.9204115 29.41752 1.59451105e-05 29.41752 1.59451105e-05 44.0000303 28.9204115 44.0000303"></polygon>
        <polygon id="path-3" points="0 44 263 44 263 0 0 0"></polygon>
    </defs>
    <g id="sponsors" stroke="none" stroke-width="1" fill="none" fill-rule="evenodd">
        <g id="yglf-copy" transform="translate(-713.000000, -700.000000)">
            <g id="Page-1" transform="translate(713.000000, 700.000000)">
                <g id="Group-3">
                    <mask id="mask-2" fill="white">
                        <use xlink:href="#path-1"></use>
                    </mask>
                    <g id="Clip-2"></g>
                    <path d="M11.0160168,32.7961131 L3.27943345,32.7970234 C0.34351331,32.7970234 -0.306072338,30.9359752 0.179442708,29.41752 L0.130739005,29.5674234 C-0.229364005,30.8840855 0.226015625,31.5468166 0.632995949,32.3278924 C1.971739,34.8886924 6.17730382,42.5716993 6.17730382,42.5716993 C6.70391262,43.4905407 7.42807581,44.0000303 8.62588252,44.0000303 C10.9852726,44.0000303 14.7762471,41.5672855 14.7762471,41.5672855 L28.9204115,32.7961131 L11.0160168,32.7961131 Z" id="Fill-1" fill="#FEFEFE"></path>
                </g>
                <path d="M13.8673803,0 L13.8402449,0 C12.2877292,0 11.9361875,0.99872689 11.8590496,1.18438568 L0.230731922,29.3242031 C-0.401921244,30.9058554 0.160301618,33 3.25283225,33 L11.0019951,32.9990733 L20,11.4311444 C17.5995767,5.67325064 15.8522344,1.47538498 15.8394289,1.44449333 C15.7260086,1.16368828 15.2211057,0 13.8673803,0" id="Fill-4" fill="#FEFEFE"></path>
                <path d="M24.7349759,-1.516582e-15 C24.7442064,-1.516582e-15 20.7691037,-1.516582e-15 12.8096679,-1.516582e-15 C11.5676754,-1.516582e-15 11.0939743,0.840040807 11,1.04371482 C11,1.04371482 11.4171398,0.106570062 12.8093733,0.106570062 C14.1435726,0.106570062 14.6317086,1.25685495 14.7410016,1.53442568 C14.7533744,1.56496152 16.4419657,5.71447607 18.7609802,11.4063556 C23.8688806,23.9520032 32.032271,44 32.032271,44 L44,44 C44,44 26.671023,1.45869681 26.563203,1.196394 C26.4586235,0.935923327 26.0011248,0.026566176 24.7349759,-1.516582e-15 Z" id="Fill-6" fill="#FEFEFE"></path>
                <path d="M66.4250371,12.2121151 L61.9868595,22.144743 L70.9013945,22.144743 L66.4250371,12.2121151 Z M80,32 L75.1927503,32 L72.5651679,26.009713 L60.3215341,26.009713 L57.6557718,32 L53,32 L64.3918812,7 L68.6065668,7 L80,32 Z" id="Fill-8" fill="#FEFEFE"></path>
                <polygon id="Fill-10" fill="#FEFEFE" points="120.973461 32 116.682458 32 116.682458 11.0711126 109 11.0711126 109 7 129 7 127.34957 11.0711126 120.973461 11.0711126"></polygon>
                <polygon id="Fill-12" fill="#FEFEFE" points="207.993928 11.0708617 193.719959 11.0708617 193.719959 17.4308526 202.862343 17.4308526 202.862343 21.3611537 193.719959 21.3611537 193.719959 28.0043637 208 28.0043637 208 32 189 32 189 7 207.993928 7"></polygon>
                <mask id="mask-4" fill="white">
                    <use xlink:href="#path-3"></use>
                </mask>
                <g id="Clip-15"></g>
                <polygon id="Fill-14" fill="#FEFEFE" mask="url(#mask-4)" points="236 32 240 32 240 7 236 7"></polygon>
                <path d="M222.826807,10.8930447 C220.260333,10.8930447 218.080245,11.6388623 218.0685,13.2800667 C218.055852,15.1998294 219.306865,15.8653549 224.031743,17.3436563 C229.252931,18.9981944 232.027204,20.6779506 231.999799,24.7655988 C231.969683,29.3729715 228.270852,32 222.86656,32 C219.042749,32 215.614358,30.8072137 213,28.59324 L214.626558,24.801252 C216.997881,26.7157972 219.874248,28.0709068 222.982506,28.0851101 C225.697452,28.0967046 227.633601,26.8247857 227.633601,24.9374876 C227.633601,23.3612125 226.687059,22.3124881 222.10493,20.9150585 C216.847603,19.2564623 213.672788,17.5251106 213.697785,13.4049976 C213.729707,9.30691431 217.724276,6.9761258 222.746398,7.00018443 C227.769122,7.02366333 230.596701,8.79037842 231.024346,9.0295154 L229.44778,12.477436 C228.420829,11.9455373 226.171475,10.8930447 222.826807,10.8930447" id="Fill-16" fill="#FEFEFE" mask="url(#mask-4)"></path>
                <polygon id="Fill-17" fill="#FEFEFE" mask="url(#mask-4)" points="245.771868 19.1006988 257.737905 7 252.005447 7 240 19.1006988 253.192246 32 259 32"></polygon>
                <path d="M145.497966,28.0986661 C140.368564,28.0986661 136.625004,24.248902 136.625004,19.4995654 C136.625004,14.7519672 140.368564,10.9019133 145.497966,10.9019133 C150.627368,10.9019133 154.375621,14.7519672 154.375621,19.4995654 C154.375621,24.248902 150.627368,28.0986661 145.497966,28.0986661 M145.497966,7 C138.043389,7 132,12.597629 132,19.4995654 C132,26.4049785 138.043389,32 145.497966,32 C152.952543,32 159,26.4049785 159,19.4995654 C159,12.597629 152.952543,7 145.497966,7" id="Fill-18" fill="#FEFEFE" mask="url(#mask-4)"></path>
                <path d="M171.732698,27.9993167 L166.549369,28.0044116 L166.549369,11.0750087 L171.752691,11.0750087 C176.794217,11.0750087 180.455552,14.5551147 180.455552,19.4668832 C180.455552,24.3777527 176.77207,27.9993167 171.732698,27.9993167 M171.732698,7 L162,7 L162,32 L171.732698,31.9979021 C179.059674,31.9979021 185,26.6069147 185,19.4668832 C185,12.3241545 179.059674,7 171.732698,7" id="Fill-19" fill="#FEFEFE" mask="url(#mask-4)"></path>
                <path d="M107,20.7064509 C107,28.0431124 102.305433,32 95.4988742,32 C88.6936018,32 84,28.0431124 84,20.7064509 L84,7 L88.7531082,7 L88.7531082,21.2263254 C88.7531082,25.5298943 91.507447,28.0581598 95.5008041,28.0581598 C99.4931963,28.0581598 102.248178,25.5298943 102.248178,21.2263254 L102.248178,7 L107,7 L107,20.7064509 Z" id="Fill-20" fill="#FEFEFE" mask="url(#mask-4)"></path>
            </g>
        </g>
    </g>
</svg>