<svg id="Layer_1" data-name="Layer 1" xmlns="http://www.w3.org/2000/svg" viewBox="0 0 1366 768"><defs><style>.cls-1{fill:#fff;}</style></defs><title>Artboard 1</title><path class="cls-1" d="M219.08,314.89c-7.14,3.74-9.79,10.05-9.79,27.5a27.9,27.9,0,0,1,9-5.44,38.15,38.15,0,0,0,9.18-5c6-4.42,7-10.11,7-19.68C234.4,312.29,224.57,312,219.08,314.89Z"/><path class="cls-1" d="M176.76,319c-5.82,5.13-7.52,13.31-7.52,13.31L150,406.94l-16-61.1c-1.56-6.49-4.38-14.53-8.83-20-5.67-6.92-17.2-7.35-18.43-7.35s-12.76.43-18.43,7.35c-4.45,5.43-7.27,13.46-8.83,20l-16,61.1L44.15,332.29s-1.7-8.18-7.52-13.31C27.19,310.66,13,312.44,13,312.44L49.93,452s12.17.88,18.26-2.23c8-4.08,11.81-7.22,16.65-26.21,4.32-16.92,16.38-66.63,17.51-70.17.56-1.75,1.26-5.93,4.33-5.93s3.79,4.18,4.33,5.93c1.11,3.54,13.19,53.25,17.51,70.17,4.84,19,8.65,22.13,16.65,26.21,6.09,3.1,18.26,2.23,18.26,2.23l36.9-139.52S186.2,310.66,176.76,319Z"/><path class="cls-1" d="M234.39,335.22a22.58,22.58,0,0,1-7.57,6.51c-3.38,1.89-6.63,3.17-10.11,4.84-5.84,2.8-7.42,5.92-7.42,10.68V452s9.31,1.18,15.4-1.93c7.84-4,9.64-7.85,9.71-25.2V340.27h0Z"/><path class="cls-1" d="M326.36,382.54l46.82-69.63s-19.76-3.36-29.54,5.54c-6.26,5.7-13.26,15.95-13.26,15.95l-17.23,24.83c-.83,1.29-1.93,2.7-3.68,2.7s-2.84-1.41-3.68-2.7l-17.23-24.83s-7-10.25-13.26-15.95c-9.78-8.91-29.54-5.54-29.54-5.54l46.82,69.63L245.89,452s20.58,2.6,30.36-6.31c6.26-5.7,12.32-15,12.32-15l17.23-24.83c.83-1.29,1.93-2.7,3.68-2.7s2.84,1.41,3.68,2.7l17.23,24.83s6.42,9.27,12.68,15c9.78,8.91,30,6.31,30,6.31Z"/><path class="cls-1" d="M480.88,444.7v7.47H385.56V311.84H479.9v7.47H394.21v56.21h80.58V383H394.21V444.7Z"/><path class="cls-1" d="M494.25,351.15h7.47v21.62h.39a32.38,32.38,0,0,1,5.6-10.12,37.23,37.23,0,0,1,19-12.28,43.36,43.36,0,0,1,11.59-1.57,46,46,0,0,1,15,2.16,29.46,29.46,0,0,1,10.12,5.7,27.55,27.55,0,0,1,6.19,8,36.86,36.86,0,0,1,3.24,8.94A53.34,53.34,0,0,1,574,382.3c.13,2.82.2,5.28.2,7.37v62.5h-7.47V388.3a93.38,93.38,0,0,0-.59-9.53A28.61,28.61,0,0,0,562.74,368a25,25,0,0,0-8.65-8.94q-5.8-3.73-16-3.73a35.78,35.78,0,0,0-15.23,3.14,33,33,0,0,0-11.5,8.74,38.5,38.5,0,0,0-7.17,13.37,56,56,0,0,0-2.46,17v54.64h-7.47Z"/><path class="cls-1" d="M679.78,351.15v95.71c0,1.31-.07,3.34-.2,6.09a50.49,50.49,0,0,1-1.38,9.14,45.64,45.64,0,0,1-3.83,10.22,31.78,31.78,0,0,1-7.47,9.43,36,36,0,0,1-12.38,6.78q-7.56,2.55-18.37,2.16A65.82,65.82,0,0,1,621,489a35.5,35.5,0,0,1-12.28-5.31,27.49,27.49,0,0,1-8.45-9.63,34.13,34.13,0,0,1-3.63-14.84h7.47a27.09,27.09,0,0,0,3.34,11.4,24,24,0,0,0,7.17,7.76,30.34,30.34,0,0,0,9.92,4.42,48.55,48.55,0,0,0,11.79,1.38A45.05,45.05,0,0,0,651.28,482a31.93,31.93,0,0,0,10.12-5.6,25.74,25.74,0,0,0,6.19-7.56,41,41,0,0,0,3.24-8.06,35.71,35.71,0,0,0,1.27-7.17c.13-2.16.2-3.83.2-5V425.44h-.4a40.18,40.18,0,0,1-14.45,17.1q-9.14,5.89-22.11,5.9-11.21,0-19.36-3.83A37.39,37.39,0,0,1,602.44,434a45.71,45.71,0,0,1-8.06-15.82,69.63,69.63,0,0,1-2.65-19.66,63.13,63.13,0,0,1,2.85-19.06,47.45,47.45,0,0,1,8.36-15.82,40.28,40.28,0,0,1,13.66-10.81,41.89,41.89,0,0,1,18.77-4A43.36,43.36,0,0,1,647,350.37a40.78,40.78,0,0,1,10.52,4.52,36.39,36.39,0,0,1,8.55,7.27,33.34,33.34,0,0,1,5.89,10h.4v-21Zm-44.42,4.13a32.74,32.74,0,0,0-16,3.73,33.84,33.84,0,0,0-11.2,9.83,44.55,44.55,0,0,0-6.68,13.86,56.25,56.25,0,0,0-2.26,15.82,61.16,61.16,0,0,0,2.26,16.8,39.79,39.79,0,0,0,6.88,13.85,33.52,33.52,0,0,0,11.4,9.34A34.08,34.08,0,0,0,635.36,442a34.78,34.78,0,0,0,16.12-3.54,33.4,33.4,0,0,0,11.5-9.63,42.14,42.14,0,0,0,6.88-13.86,60.37,60.37,0,0,0,0-32.72A41,41,0,0,0,663,368.35a33.91,33.91,0,0,0-11.5-9.53A34.8,34.8,0,0,0,635.36,355.28Z"/><path class="cls-1" d="M703.56,332.09V311.84H711v20.24Zm0,120.08v-101H711v101Z"/><path class="cls-1" d="M734.8,351.15h7.47v21.62h.39a32.38,32.38,0,0,1,5.6-10.12,37.23,37.23,0,0,1,19-12.28,43.36,43.36,0,0,1,11.59-1.57,46,46,0,0,1,15,2.16,29.46,29.46,0,0,1,10.12,5.7,27.55,27.55,0,0,1,6.19,8,36.86,36.86,0,0,1,3.24,8.94,53.34,53.34,0,0,1,1.18,8.75c.13,2.82.2,5.28.2,7.37v62.5h-7.47V388.3a93.38,93.38,0,0,0-.59-9.53A28.61,28.61,0,0,0,803.3,368a25,25,0,0,0-8.65-8.94q-5.8-3.73-16-3.73a35.78,35.78,0,0,0-15.23,3.14,33,33,0,0,0-11.5,8.74,38.5,38.5,0,0,0-7.17,13.37,56,56,0,0,0-2.46,17v54.64H734.8Z"/><path class="cls-1" d="M839.75,402.65a59.35,59.35,0,0,0,2.07,17.1,42.76,42.76,0,0,0,7,14.54,35.19,35.19,0,0,0,11.69,10A34.27,34.27,0,0,0,876.9,448q14.35,0,23.88-8T913.07,418h7.47q-3,17.89-14.25,27.22t-29.38,9.33a44.71,44.71,0,0,1-19.46-4,39.53,39.53,0,0,1-14.05-11,48.28,48.28,0,0,1-8.45-16.31,63.23,63.23,0,0,1-2.65-19.75,72.16,72.16,0,0,1,2.46-20.24A52.65,52.65,0,0,1,843,365.7a42.28,42.28,0,0,1,14.05-12.28,40.78,40.78,0,0,1,19.85-4.62q11.8,0,20.44,4.32a39.31,39.31,0,0,1,14.15,11.7,47.79,47.79,0,0,1,8,17.2,69.22,69.22,0,0,1,1.87,20.64Zm74.1-6.49a51.12,51.12,0,0,0-2.75-15.33,40.35,40.35,0,0,0-7.27-13.07,36.34,36.34,0,0,0-11.5-9,33.66,33.66,0,0,0-15.43-3.44,31.27,31.27,0,0,0-15,3.54,37,37,0,0,0-11.3,9.34,46.48,46.48,0,0,0-7.47,13.17,54.63,54.63,0,0,0-3.34,14.84Z"/><path class="cls-1" d="M941.76,402.65a59.35,59.35,0,0,0,2.07,17.1,42.76,42.76,0,0,0,7,14.54,35.19,35.19,0,0,0,11.69,10A34.27,34.27,0,0,0,978.9,448q14.35,0,23.88-8T1015.07,418h7.47q-3,17.89-14.25,27.22t-29.38,9.33a44.71,44.71,0,0,1-19.46-4,39.53,39.53,0,0,1-14.05-11,48.28,48.28,0,0,1-8.45-16.31,63.23,63.23,0,0,1-2.65-19.75,72.16,72.16,0,0,1,2.46-20.24A52.65,52.65,0,0,1,945,365.7a42.28,42.28,0,0,1,14.05-12.28,40.78,40.78,0,0,1,19.85-4.62q11.8,0,20.44,4.32a39.31,39.31,0,0,1,14.15,11.7,47.79,47.79,0,0,1,8,17.2,69.22,69.22,0,0,1,1.87,20.64Zm74.1-6.49a51.12,51.12,0,0,0-2.75-15.33,40.35,40.35,0,0,0-7.27-13.07,36.34,36.34,0,0,0-11.5-9,33.66,33.66,0,0,0-15.43-3.44,31.27,31.27,0,0,0-15,3.54,37,37,0,0,0-11.3,9.34,46.48,46.48,0,0,0-7.47,13.17,54.63,54.63,0,0,0-3.34,14.84Z"/><path class="cls-1" d="M1048.28,373.56h.59a24,24,0,0,1,5.11-9.24,37.72,37.72,0,0,1,8.84-7.47,42.16,42.16,0,0,1,11.5-4.82,47,47,0,0,1,13.26-1.47V358a35.4,35.4,0,0,0-13.46,1.18q-7.56,2-14.45,8.65a70.23,70.23,0,0,0-4.82,5.7,27.72,27.72,0,0,0-3.44,6.09,38.35,38.35,0,0,0-2.16,7.47,64.87,64.87,0,0,0-1,9.83v55.23h-7.47v-101h7.47Z"/><path class="cls-1" d="M1097.22,332.09V311.84h7.47v20.24Zm0,120.08v-101h7.47v101Z"/><path class="cls-1" d="M1128.47,351.15h7.47v21.62h.39a32.38,32.38,0,0,1,5.6-10.12,37.23,37.23,0,0,1,19-12.28,43.36,43.36,0,0,1,11.59-1.57,46,46,0,0,1,15,2.16,29.46,29.46,0,0,1,10.12,5.7,27.55,27.55,0,0,1,6.19,8,36.86,36.86,0,0,1,3.24,8.94,53.34,53.34,0,0,1,1.18,8.75c.13,2.82.2,5.28.2,7.37v62.5H1201V388.3a93.38,93.38,0,0,0-.59-9.53A28.61,28.61,0,0,0,1197,368a25,25,0,0,0-8.65-8.94q-5.8-3.73-16-3.73a35.78,35.78,0,0,0-15.23,3.14,33,33,0,0,0-11.5,8.74,38.5,38.5,0,0,0-7.17,13.37,56,56,0,0,0-2.46,17v54.64h-7.47Z"/><path class="cls-1" d="M1314,351.15v95.71c0,1.31-.07,3.34-.2,6.09a50.49,50.49,0,0,1-1.38,9.14,45.64,45.64,0,0,1-3.83,10.22,31.78,31.78,0,0,1-7.47,9.43,36,36,0,0,1-12.38,6.78q-7.56,2.55-18.37,2.16a65.82,65.82,0,0,1-15.13-1.67,35.5,35.5,0,0,1-12.28-5.31,27.49,27.49,0,0,1-8.45-9.63,34.13,34.13,0,0,1-3.63-14.84h7.47a27.09,27.09,0,0,0,3.34,11.4,24,24,0,0,0,7.17,7.76,30.34,30.34,0,0,0,9.92,4.42,48.55,48.55,0,0,0,11.79,1.38A45.05,45.05,0,0,0,1285.5,482a31.93,31.93,0,0,0,10.12-5.6,25.74,25.74,0,0,0,6.19-7.56,41,41,0,0,0,3.24-8.06,35.71,35.71,0,0,0,1.27-7.17c.13-2.16.2-3.83.2-5V425.44h-.4a40.18,40.18,0,0,1-14.45,17.1q-9.14,5.89-22.11,5.9-11.21,0-19.36-3.83A37.39,37.39,0,0,1,1236.66,434a45.71,45.71,0,0,1-8.06-15.82,69.63,69.63,0,0,1-2.65-19.66,63.13,63.13,0,0,1,2.85-19.06,47.45,47.45,0,0,1,8.36-15.82,40.28,40.28,0,0,1,13.66-10.81,41.89,41.89,0,0,1,18.77-4,43.36,43.36,0,0,1,11.59,1.57,40.78,40.78,0,0,1,10.52,4.52,36.39,36.39,0,0,1,8.55,7.27,33.34,33.34,0,0,1,5.89,10h.4v-21Zm-44.42,4.13a32.74,32.74,0,0,0-16,3.73,33.84,33.84,0,0,0-11.2,9.83,44.55,44.55,0,0,0-6.68,13.86,56.25,56.25,0,0,0-2.26,15.82,61.16,61.16,0,0,0,2.26,16.8,39.79,39.79,0,0,0,6.88,13.85,33.52,33.52,0,0,0,11.4,9.34,34.08,34.08,0,0,0,15.63,3.44,34.78,34.78,0,0,0,16.12-3.54,33.4,33.4,0,0,0,11.5-9.63,42.14,42.14,0,0,0,6.88-13.86,60.37,60.37,0,0,0,0-32.72,41,41,0,0,0-6.88-13.86,33.91,33.91,0,0,0-11.5-9.53A34.8,34.8,0,0,0,1269.58,355.28Z"/></svg>