<svg width="140px" height="146px" viewBox="0 0 140 146" version="1.1" xmlns="http://www.w3.org/2000/svg" xmlns:xlink="http://www.w3.org/1999/xlink">
    <g id="Page-1" stroke="none" stroke-width="1" fill="none" fill-rule="evenodd">
        <path d="M82.1921922,74.135785 L82.1921922,86.9391796 L124.444444,86.9391796 C122.762763,115.230552 104.054054,132.37058 72.7327327,132.37058 C39.3093093,132.37058 13.8738739,105.937765 13.8738739,73.1032532 C13.8738739,40.2687412 39.3093093,13.6294201 72.7327327,13.6294201 C86.6066066,13.6294201 99.2192192,18.3790665 109.099099,26.2263083 L118.978979,16.5205092 C106.366366,6.19519095 90.3903904,0 72.7327327,0 C31.7417417,0 0,32.6280057 0,73.1032532 C0,113.371994 31.7417417,146 72.7327327,146 C113.933934,146 140,122.458274 140,74.135785 L82.1921922,74.135785 Z" id="Path" fill="#05CF9D"></path>
    </g>
</svg>