<svg width="111px" height="125px" viewBox="0 0 111 125" version="1.1" xmlns="http://www.w3.org/2000/svg" xmlns:xlink="http://www.w3.org/1999/xlink">
    <!-- Generator: Sketch 44.1 (41455) - http://www.bohemiancoding.com/sketch -->
    <title>Fill 10</title>
    <desc>Created with Sketch.</desc>
    <defs></defs>
    <g id="Page-1" stroke="none" stroke-width="1" fill="none" fill-rule="evenodd">
        <path d="M63.9677993,61.9766688 L110.762799,62.1946688 L110.749799,65.0846688 C110.687799,78.4506688 106.916799,92.8816688 99.7997993,103.143669 C96.4097993,108.004669 83.7067993,124.743669 57.9517993,124.622669 C24.6227993,124.467669 -0.162200696,97.0786688 0.000799304178,62.0396688 C0.163799304,26.9996688 25.3727993,-0.155331245 58.8697993,0.000668755378 C69.6427993,0.0506687554 82.2547993,2.99966876 93.1537993,12.0816688 C98.1837993,16.2586688 102.871799,21.6996688 106.048799,26.4106688 L96.7487993,35.3976688 C93.5727993,30.5066688 89.8897993,26.1546688 86.2017993,22.8856688 C80.8367993,18.1656688 72.4457993,12.7066688 58.9797993,12.6446688 C31.8787993,12.5186688 12.9237993,34.2846688 12.7927993,62.2796688 C12.6397993,95.1516688 36.9697993,111.882669 58.1797993,111.980669 C73.1607993,112.050669 86.1597993,103.983669 92.6137993,91.9126688 C94.6507993,88.1286688 96.8657993,82.3596688 97.2387993,74.7746688 L63.9087993,74.6196688 L63.9677993,61.9766688 Z" id="Fill-10" fill="#05CF9D"></path>
    </g>
</svg>